# File units = meters
mtllib LCrossbeam.mtl
g Length Crossbeam
v 0.019285 -0.6858 -0.012935 
v 0.019285 0.6858 -0.012935 
v 0.019285 0.6858 0.012935 
v 0.019285 -0.6858 0.012935 
v 0.012935 0.6858 0.019285 
v 0.012935 -0.6858 0.019285 
v 0.0141738 -0.6858 0.019163 
v 0.0141738 0.6858 0.019163 
v 0.015365 -0.6858 0.0188016 
v 0.015365 0.6858 0.0188016 
v 0.0164629 -0.6858 0.0182148 
v 0.0164629 0.6858 0.0182148 
v 0.0174251 -0.6858 0.0174251 
v 0.0174251 0.6858 0.0174251 
v 0.0182148 -0.6858 0.0164629 
v 0.0182148 0.6858 0.0164629 
v 0.0188016 -0.6858 0.015365 
v 0.0188016 0.6858 0.015365 
v 0.019163 -0.6858 0.0141738 
v 0.019163 0.6858 0.0141738 
v -0.012935 0.6858 0.019285 
v -0.012935 -0.6858 0.019285 
v -0.019285 0.6858 0.012935 
v -0.019285 -0.6858 0.012935 
v -0.019163 -0.6858 0.0141738 
v -0.019163 0.6858 0.0141738 
v -0.0188016 -0.6858 0.015365 
v -0.0188016 0.6858 0.015365 
v -0.0182148 -0.6858 0.0164629 
v -0.0182148 0.6858 0.0164629 
v -0.0174251 -0.6858 0.0174251 
v -0.0174251 0.6858 0.0174251 
v -0.0164629 -0.6858 0.0182148 
v -0.0164629 0.6858 0.0182148 
v -0.015365 -0.6858 0.0188016 
v -0.015365 0.6858 0.0188016 
v -0.0141738 -0.6858 0.019163 
v -0.0141738 0.6858 0.019163 
v -0.019285 0.6858 -0.012935 
v -0.019285 -0.6858 -0.012935 
v -0.012935 0.6858 -0.019285 
v -0.012935 -0.6858 -0.019285 
v -0.0141738 -0.6858 -0.019163 
v -0.0141738 0.6858 -0.019163 
v -0.015365 -0.6858 -0.0188016 
v -0.015365 0.6858 -0.0188016 
v -0.0164629 -0.6858 -0.0182148 
v -0.0164629 0.6858 -0.0182148 
v -0.0174251 -0.6858 -0.0174251 
v -0.0174251 0.6858 -0.0174251 
v -0.0182148 -0.6858 -0.0164629 
v -0.0182148 0.6858 -0.0164629 
v -0.0188016 -0.6858 -0.015365 
v -0.0188016 0.6858 -0.015365 
v -0.019163 -0.6858 -0.0141738 
v -0.019163 0.6858 -0.0141738 
v 0.012935 0.6858 -0.019285 
v 0.012935 -0.6858 -0.019285 
v 0.019163 -0.6858 -0.0141738 
v 0.019163 0.6858 -0.0141738 
v 0.0188016 -0.6858 -0.015365 
v 0.0188016 0.6858 -0.015365 
v 0.0182148 -0.6858 -0.0164629 
v 0.0182148 0.6858 -0.0164629 
v 0.0174251 -0.6858 -0.0174251 
v 0.0174251 0.6858 -0.0174251 
v 0.0164629 -0.6858 -0.0182148 
v 0.0164629 0.6858 -0.0182148 
v 0.015365 -0.6858 -0.0188016 
v 0.015365 0.6858 -0.0188016 
v 0.0141738 -0.6858 -0.019163 
v 0.0141738 0.6858 -0.019163 
v -0.00963395 -0.6858 0.0127 
v 0.011802 -0.6858 0.011802 
v 0.0121833 -0.6858 0.0113374 
v 0.00963395 -0.6858 0.0127 
v 0.0124666 -0.6858 0.0108073 
v 0.0113374 -0.6858 0.0121833 
v -0.0102321 -0.6858 0.0126411 
v -0.0108073 -0.6858 0.0124666 
v -0.011802 -0.6858 0.011802 
v -0.0113374 -0.6858 0.0121833 
v 0.0108073 -0.6858 0.0124666 
v 0.0102321 -0.6858 0.0126411 
v -0.0121833 -0.6858 0.0113374 
v -0.0124666 -0.6858 0.0108073 
v -0.0127 -0.6858 -0.00963395 
v -0.0127 -0.6858 0.00963395 
v -0.0126411 -0.6858 0.0102321 
v -0.0126411 -0.6858 -0.0102321 
v -0.011802 -0.6858 -0.011802 
v -0.0121833 -0.6858 -0.0113374 
v -0.0113374 -0.6858 -0.0121833 
v 0.00963395 -0.6858 -0.0127 
v -0.00963395 -0.6858 -0.0127 
v 0.011802 -0.6858 -0.011802 
v 0.0113374 -0.6858 -0.0121833 
v 0.0121833 -0.6858 -0.0113374 
v 0.0127 -0.6858 0.00963395 
v 0.0126411 -0.6858 0.0102321 
v -0.0124666 -0.6858 -0.0108073 
v -0.0108073 -0.6858 -0.0124666 
v 0.0108073 -0.6858 -0.0124666 
v 0.0102321 -0.6858 -0.0126411 
v 0.0127 -0.6858 -0.00963395 
v -0.0102321 -0.6858 -0.0126411 
v 0.0124666 -0.6858 -0.0108073 
v 0.0126411 -0.6858 -0.0102321 
v 0.0121833 0.6858 0.0113374 
v -0.0127 0.6858 0.00963395 
v -0.0127 0.6858 -0.00963395 
v 0.0108073 0.6858 0.0124666 
v 0.0102321 0.6858 0.0126411 
v 0.011802 0.6858 0.011802 
v 0.0113374 0.6858 0.0121833 
v 0.0127 0.6858 -0.00963395 
v 0.0127 0.6858 0.00963395 
v 0.011802 0.6858 -0.011802 
v 0.0121833 0.6858 -0.0113374 
v 0.0113374 0.6858 -0.0121833 
v -0.0113374 0.6858 0.0121833 
v 0.0124666 0.6858 0.0108073 
v 0.0126411 0.6858 -0.0102321 
v 0.0108073 0.6858 -0.0124666 
v -0.011802 0.6858 -0.011802 
v -0.0113374 0.6858 -0.0121833 
v -0.0121833 0.6858 -0.0113374 
v -0.0124666 0.6858 -0.0108073 
v -0.0126411 0.6858 0.0102321 
v -0.011802 0.6858 0.011802 
v 0.0124666 0.6858 -0.0108073 
v 0.0102321 0.6858 -0.0126411 
v -0.0126411 0.6858 -0.0102321 
v -0.0124666 0.6858 0.0108073 
v -0.0121833 0.6858 0.0113374 
v -0.0108073 0.6858 0.0124666 
v 0.00963395 0.6858 0.0127 
v 0.0126411 0.6858 0.0102321 
v -0.00963395 0.6858 -0.0127 
v -0.0108073 0.6858 -0.0124666 
v -0.0102321 0.6858 -0.0126411 
v -0.0102321 0.6858 0.0126411 
v -0.00963395 0.6858 0.0127 
v 0.00963395 0.6858 -0.0127 
vn 1 0 0 
vn 0 0 1 
vn 0.19509 0 0.980785 
vn 0.382683 0 0.92388 
vn 0.55557 0 0.83147 
vn 0.707107 0 0.707107 
vn 0.83147 0 0.55557 
vn 0.92388 0 0.382683 
vn 0.980785 0 0.19509 
vn 1 0 6.12323e-17 
vn 2.68222e-16 0 1 
vn -1 0 -1.83697e-16 
vn -0.980785 0 0.19509 
vn -0.92388 0 0.382683 
vn -0.83147 0 0.55557 
vn -0.707107 0 0.707107 
vn -0.55557 0 0.83147 
vn -0.382683 0 0.92388 
vn -0.19509 0 0.980785 
vn -2.44929e-16 0 1 
vn -1 0 0 
vn 1.22465e-16 0 -1 
vn -0.19509 0 -0.980785 
vn -0.382683 0 -0.92388 
vn -0.55557 0 -0.83147 
vn -0.707107 0 -0.707107 
vn -0.83147 0 -0.55557 
vn -0.92388 0 -0.382683 
vn -0.980785 0 -0.19509 
vn -1 0 -1.83697e-16 
vn -1.34111e-16 0 -1 
vn 1 0 6.12323e-17 
vn 0.980785 0 -0.19509 
vn 0.92388 0 -0.382683 
vn 0.83147 0 -0.55557 
vn 0.707107 0 -0.707107 
vn 0.55557 0 -0.83147 
vn 0.382683 0 -0.92388 
vn 0.19509 0 -0.980785 
vn 1.22465e-16 0 -1 
vn 0 -1 0 
vn 0 1 0 
vn -0.19509 0 0.980785 
vn 6.09478e-15 0 1 
vn -0.382683 0 0.92388 
vn -0.19509 0 0.980785 
vn -0.55557 0 0.83147 
vn -0.382683 0 0.92388 
vn -0.707107 0 0.707107 
vn -0.55557 0 0.83147 
vn -0.83147 0 0.55557 
vn -0.707107 0 0.707107 
vn -0.92388 0 0.382683 
vn -0.83147 0 0.55557 
vn -0.980785 0 0.19509 
vn -0.92388 0 0.382683 
vn -1 0 -2.31539e-14 
vn -0.980785 0 0.19509 
vn 1.80064e-16 0 1 
vn 0.980785 0 0.19509 
vn 1 0 -2.29089e-14 
vn 0.92388 0 0.382683 
vn 0.980785 0 0.19509 
vn 0.83147 0 0.55557 
vn 0.92388 0 0.382683 
vn 0.707107 0 0.707107 
vn 0.83147 0 0.55557 
vn 0.55557 0 0.83147 
vn 0.707107 0 0.707107 
vn 0.382683 0 0.92388 
vn 0.55557 0 0.83147 
vn 0.19509 0 0.980785 
vn 0.382683 0 0.92388 
vn -9.44834e-15 0 1 
vn 0.19509 0 0.980785 
vn 1 0 -1.80064e-16 
vn 0.19509 0 -0.980785 
vn -3.30778e-15 0 -1 
vn 0.382683 0 -0.92388 
vn 0.19509 0 -0.980785 
vn 0.55557 0 -0.83147 
vn 0.382683 0 -0.92388 
vn 0.707107 0 -0.707107 
vn 0.55557 0 -0.83147 
vn 0.83147 0 -0.55557 
vn 0.707107 0 -0.707107 
vn 0.92388 0 -0.382683 
vn 0.83147 0 -0.55557 
vn 0.980785 0 -0.19509 
vn 0.92388 0 -0.382683 
vn 1 0 1.83697e-16 
vn 0.980785 0 -0.19509 
vn -1.80064e-16 0 -1 
vn -0.980785 0 -0.19509 
vn -1 0 -6.12323e-17 
vn -0.92388 0 -0.382683 
vn -0.980785 0 -0.19509 
vn -0.83147 0 -0.55557 
vn -0.92388 0 -0.382683 
vn -0.707107 0 -0.707107 
vn -0.83147 0 -0.55557 
vn -0.55557 0 -0.83147 
vn -0.707107 0 -0.707107 
vn -0.382683 0 -0.92388 
vn -0.55557 0 -0.83147 
vn -0.19509 0 -0.980785 
vn -0.382683 0 -0.92388 
vn 3.55271e-15 0 -1 
vn -0.19509 0 -0.980785 
vn -1 0 2.70095e-16 
usemtl 0.600000_0.600000_0.600000_0.000000_0.000000
o mesh0
f 1//1 2//1 3//1 
f 3//1 4//1 1//1 
o mesh1
f 5//2 6//2 7//3 
f 8//3 7//3 9//4 
f 10//4 9//4 11//5 
f 12//5 11//5 13//6 
f 14//6 13//6 15//7 
f 16//7 15//7 17//8 
f 18//8 17//8 19//9 
f 20//9 19//9 4//10 
f 4//10 3//10 20//9 
f 19//9 20//9 18//8 
f 17//8 18//8 16//7 
f 15//7 16//7 14//6 
f 13//6 14//6 12//5 
f 11//5 12//5 10//4 
f 9//4 10//4 8//3 
f 7//3 8//3 5//2 
o mesh2
f 6//11 5//11 21//11 
f 21//11 22//11 6//11 
o mesh3
f 23//12 24//12 25//13 
f 26//13 25//13 27//14 
f 28//14 27//14 29//15 
f 30//15 29//15 31//16 
f 32//16 31//16 33//17 
f 34//17 33//17 35//18 
f 36//18 35//18 37//19 
f 38//19 37//19 22//20 
f 22//20 21//20 38//19 
f 37//19 38//19 36//18 
f 35//18 36//18 34//17 
f 33//17 34//17 32//16 
f 31//16 32//16 30//15 
f 29//15 30//15 28//14 
f 27//14 28//14 26//13 
f 25//13 26//13 23//12 
o mesh4
f 24//21 23//21 39//21 
f 39//21 40//21 24//21 
o mesh5
f 41//22 42//22 43//23 
f 44//23 43//23 45//24 
f 46//24 45//24 47//25 
f 48//25 47//25 49//26 
f 50//26 49//26 51//27 
f 52//27 51//27 53//28 
f 54//28 53//28 55//29 
f 56//29 55//29 40//30 
f 40//30 39//30 56//29 
f 55//29 56//29 54//28 
f 53//28 54//28 52//27 
f 51//27 52//27 50//26 
f 49//26 50//26 48//25 
f 47//25 48//25 46//24 
f 45//24 46//24 44//23 
f 43//23 44//23 41//22 
o mesh6
f 42//31 41//31 57//31 
f 57//31 58//31 42//31 
o mesh7
f 2//32 1//32 59//33 
f 60//33 59//33 61//34 
f 62//34 61//34 63//35 
f 64//35 63//35 65//36 
f 66//36 65//36 67//37 
f 68//37 67//37 69//38 
f 70//38 69//38 71//39 
f 72//39 71//39 58//40 
f 58//40 57//40 72//39 
f 71//39 72//39 70//38 
f 69//38 70//38 68//37 
f 67//37 68//37 66//36 
f 65//36 66//36 64//35 
f 63//35 64//35 62//34 
f 61//34 62//34 60//33 
f 59//33 60//33 2//32 
o mesh8
f 6//41 22//41 73//41 
f 15//41 74//41 75//41 
f 73//41 76//41 6//41 
f 75//41 77//41 19//41 
f 75//41 17//41 15//41 
f 11//41 9//41 78//41 
f 22//41 79//41 73//41 
f 80//41 79//41 22//41 
f 33//41 81//41 82//41 
f 15//41 13//41 74//41 
f 74//41 13//41 11//41 
f 83//41 7//41 6//41 
f 22//41 37//41 80//41 
f 82//41 80//41 37//41 
f 82//41 35//41 33//41 
f 78//41 74//41 11//41 
f 78//41 9//41 7//41 
f 76//41 84//41 6//41 
f 33//41 31//41 81//41 
f 29//41 27//41 85//41 
f 85//41 27//41 25//41 
f 86//41 25//41 24//41 
f 40//41 87//41 88//41 
f 7//41 83//41 78//41 
f 37//41 35//41 82//41 
f 81//41 31//41 29//41 
f 24//41 89//41 86//41 
f 40//41 90//41 87//41 
f 51//41 91//41 92//41 
f 47//41 45//41 93//41 
f 58//41 94//41 95//41 
f 67//41 96//41 97//41 
f 63//41 61//41 98//41 
f 1//41 4//41 99//41 
f 77//41 100//41 4//41 
f 6//41 84//41 83//41 
f 25//41 86//41 85//41 
f 88//41 24//41 40//41 
f 101//41 90//41 40//41 
f 92//41 101//41 55//41 
f 92//41 53//41 51//41 
f 91//41 49//41 47//41 
f 102//41 43//41 42//41 
f 95//41 42//41 58//41 
f 103//41 104//41 58//41 
f 97//41 103//41 71//41 
f 97//41 69//41 67//41 
f 96//41 65//41 63//41 
f 99//41 105//41 1//41 
f 19//41 17//41 75//41 
f 88//41 89//41 24//41 
f 55//41 53//41 92//41 
f 93//41 91//41 47//41 
f 93//41 45//41 43//41 
f 95//41 106//41 42//41 
f 71//41 69//41 97//41 
f 98//41 96//41 63//41 
f 98//41 61//41 59//41 
f 107//41 59//41 1//41 
f 4//41 100//41 99//41 
f 85//41 81//41 29//41 
f 51//41 49//41 91//41 
f 42//41 106//41 102//41 
f 67//41 65//41 96//41 
f 1//41 108//41 107//41 
f 4//41 19//41 77//41 
f 43//41 102//41 93//41 
f 59//41 107//41 98//41 
f 40//41 55//41 101//41 
f 105//41 108//41 1//41 
f 58//41 71//41 103//41 
f 104//41 94//41 58//41 
o mesh9
f 16//42 18//42 109//42 
f 23//42 110//42 111//42 
f 112//42 113//42 5//42 
f 12//42 114//42 115//42 
f 114//42 14//42 16//42 
f 109//42 18//42 20//42 
f 2//42 116//42 117//42 
f 64//42 118//42 119//42 
f 68//42 70//42 120//42 
f 111//42 39//42 23//42 
f 34//42 36//42 121//42 
f 5//42 8//42 112//42 
f 115//42 112//42 8//42 
f 115//42 10//42 12//42 
f 20//42 122//42 109//42 
f 2//42 123//42 116//42 
f 119//42 62//42 64//42 
f 118//42 66//42 68//42 
f 120//42 70//42 72//42 
f 124//42 72//42 57//42 
f 48//42 125//42 126//42 
f 52//42 54//42 127//42 
f 128//42 56//42 39//42 
f 23//42 129//42 110//42 
f 130//42 32//42 34//42 
f 121//42 36//42 38//42 
f 8//42 10//42 115//42 
f 109//42 114//42 16//42 
f 122//42 20//42 3//42 
f 117//42 3//42 2//42 
f 131//42 123//42 2//42 
f 119//42 131//42 60//42 
f 120//42 118//42 68//42 
f 57//42 132//42 124//42 
f 126//42 46//42 48//42 
f 125//42 50//42 52//42 
f 127//42 54//42 56//42 
f 111//42 133//42 39//42 
f 134//42 129//42 23//42 
f 135//42 134//42 26//42 
f 30//42 130//42 135//42 
f 38//42 136//42 121//42 
f 136//42 38//42 21//42 
f 21//42 5//42 137//42 
f 12//42 14//42 114//42 
f 117//42 138//42 3//42 
f 60//42 62//42 119//42 
f 72//42 124//42 120//42 
f 57//42 41//42 139//42 
f 140//42 141//42 41//42 
f 126//42 140//42 44//42 
f 127//42 125//42 52//42 
f 39//42 133//42 128//42 
f 26//42 28//42 135//42 
f 135//42 28//42 30//42 
f 21//42 142//42 136//42 
f 137//42 143//42 21//42 
f 3//42 138//42 122//42 
f 64//42 66//42 118//42 
f 41//42 141//42 139//42 
f 44//42 46//42 126//42 
f 56//42 128//42 127//42 
f 30//42 32//42 130//42 
f 143//42 142//42 21//42 
f 2//42 60//42 131//42 
f 139//42 144//42 57//42 
f 48//42 50//42 125//42 
f 121//42 130//42 34//42 
f 144//42 132//42 57//42 
f 23//42 26//42 134//42 
f 41//42 44//42 140//42 
f 113//42 137//42 5//42 
o mesh10
f 132//43 144//44 94//44 
f 124//45 132//43 104//46 
f 120//47 124//45 103//48 
f 118//49 120//47 97//50 
f 119//51 118//49 96//52 
f 131//53 119//51 98//54 
f 123//55 131//53 107//56 
f 116//57 123//55 108//58 
f 108//58 105//57 116//57 
f 107//56 108//58 123//55 
f 98//54 107//56 131//53 
f 96//52 98//54 119//51 
f 97//50 96//52 118//49 
f 103//48 97//50 120//47 
f 104//46 103//48 124//45 
f 94//44 104//46 132//43 
o mesh11
f 94//59 144//59 139//59 
f 139//59 95//59 94//59 
o mesh12
f 133//60 111//61 87//61 
f 128//62 133//60 90//63 
f 127//64 128//62 101//65 
f 125//66 127//64 92//67 
f 126//68 125//66 91//69 
f 140//70 126//68 93//71 
f 141//72 140//70 102//73 
f 139//74 141//72 106//75 
f 106//75 95//74 139//74 
f 102//73 106//75 141//72 
f 93//71 102//73 140//70 
f 91//69 93//71 126//68 
f 92//67 91//69 125//66 
f 101//65 92//67 127//64 
f 90//63 101//65 128//62 
f 87//61 90//63 133//60 
o mesh13
f 87//76 111//76 110//76 
f 110//76 88//76 87//76 
o mesh14
f 142//77 143//78 73//78 
f 136//79 142//77 79//80 
f 121//81 136//79 80//82 
f 130//83 121//81 82//84 
f 135//85 130//83 81//86 
f 134//87 135//85 85//88 
f 129//89 134//87 86//90 
f 110//91 129//89 89//92 
f 89//92 88//91 110//91 
f 86//90 89//92 129//89 
f 85//88 86//90 134//87 
f 81//86 85//88 135//85 
f 82//84 81//86 130//83 
f 80//82 82//84 121//81 
f 79//80 80//82 136//79 
f 73//78 79//80 142//77 
o mesh15
f 73//93 143//93 137//93 
f 137//93 76//93 73//93 
o mesh16
f 138//94 117//95 99//95 
f 122//96 138//94 100//97 
f 109//98 122//96 77//99 
f 114//100 109//98 75//101 
f 115//102 114//100 74//103 
f 112//104 115//102 78//105 
f 113//106 112//104 83//107 
f 137//108 113//106 84//109 
f 84//109 76//108 137//108 
f 83//107 84//109 113//106 
f 78//105 83//107 112//104 
f 74//103 78//105 115//102 
f 75//101 74//103 114//100 
f 77//99 75//101 109//98 
f 100//97 77//99 122//96 
f 99//95 100//97 138//94 
o mesh17
f 99//110 117//110 116//110 
f 116//110 105//110 99//110 
